<svg id="_x32__26_" xmlns="http://www.w3.org/2000/svg" width="20.65" height="20.649" viewBox="0 0 20.65 20.649">
  <g id="Group_4" data-name="Group 4" transform="translate(0)">
    <path id="Path_3" data-name="Path 3" d="M13.549,10.968H7.1a.645.645,0,0,0,0,1.291H13.55a.645.645,0,0,0,0-1.291ZM14.84,7.095H5.811a.645.645,0,0,0,0,1.291H14.84a.645.645,0,0,0,0-1.291ZM10.324,0C4.622,0,0,4.044,0,9.033a8.646,8.646,0,0,0,3.874,7.045v4.571L8.4,17.9a11.838,11.838,0,0,0,1.93.163c5.7,0,10.324-4.044,10.324-9.033S16.025,0,10.324,0Zm0,16.775a10.442,10.442,0,0,1-2.181-.237L5.1,18.362l.04-2.992A7.481,7.481,0,0,1,1.29,9.031c0-4.276,4.044-7.742,9.033-7.742s9.033,3.469,9.033,7.745S15.313,16.775,10.324,16.775Z" transform="translate(0)"/>
  </g>
</svg>
