<svg xmlns="http://www.w3.org/2000/svg" width="18.6" height="23.472" viewBox="0 0 18.6 23.472">
  <path id="Path_4" data-name="Path 4" d="M61.968,2.225a.462.462,0,0,1-.462-.462V.462a.462.462,0,1,1,.924,0v1.3a.462.462,0,0,1-.462.462Zm-1.339-.1-.921-.92a.462.462,0,1,0-.654.654l.92.92a.462.462,0,1,0,.654-.654Zm7.756.654a.462.462,0,0,0,.654,0l.919-.92a.462.462,0,1,0-.654-.654l-.919.921A.462.462,0,0,0,68.384,2.78ZM60.073,4.112a.462.462,0,0,0-.462-.462h-1.25a.462.462,0,1,0,0,.924h1.25a.462.462,0,0,0,.462-.462Zm7.439-2.349V.462a.462.462,0,0,0-.924,0v1.3a.462.462,0,0,0,.924,0Zm3.8,2.349a.462.462,0,0,0-.462-.462H69.406a.462.462,0,0,0,0,.924h1.441a.462.462,0,0,0,.462-.461ZM69.9,10.464l-1.131,1.549a1.482,1.482,0,0,1,.693,2.226l-2.517,3.706a14.1,14.1,0,0,1-6.875,5.446,1.017,1.017,0,0,1-.4.081h-6.5a.462.462,0,0,1-.413-.669l1.282-2.55a1.841,1.841,0,0,0,.2-.9,5.778,5.778,0,0,1-.537-3.513c.048-.3.136-.9.254-1.748a7.947,7.947,0,0,0-.015-2.3l-.3-1.947a1.215,1.215,0,0,1,1.09-1.381,2.362,2.362,0,0,1,1.328.3,1.2,1.2,0,0,1,1.3-.658,2.317,2.317,0,0,1,1.512,1.03l.363-.626a.462.462,0,0,1,.8.462l-.8,1.388a5.591,5.591,0,0,1-.042,1.462l1.381-1.381c.272-.562,1.94-4,2.766-5.668a.545.545,0,0,0-.436-.272.525.525,0,0,0-.429.248l-.359.621a.462.462,0,0,1-.8-.462l.359-.621a1.453,1.453,0,0,1,1.227-.71,1.488,1.488,0,0,1,.889.315,1.453,1.453,0,0,1,2.6,1.28l-.116.291a1.352,1.352,0,0,1,1.113.738,1.419,1.419,0,0,1,1.946-.153,1.337,1.337,0,0,1,.134,1.9l-.2.26a1.468,1.468,0,0,1,.634.48,1.488,1.488,0,0,1,0,1.774ZM62.566,8.447l2.515-2.515.442-1.1a.528.528,0,0,0-.945-.461c-.122.252-1.121,2.245-2.011,4.076Zm-8.014,1.26.3,1.947a8.865,8.865,0,0,1,.053,2.274,8.3,8.3,0,0,0,.827-2.81l.145-1.327a1.349,1.349,0,0,0-1.07-.405.279.279,0,0,0-.253.318Zm14.089-.665-4.634,6.166a.5.5,0,0,1-.647.092.476.476,0,0,1-.092-.647L68.719,7.4a.436.436,0,0,0,.028-.619.472.472,0,0,0-.668.031l-5.553,6.408a.462.462,0,1,1-.7-.605l4.684-5.406a.5.5,0,0,0-.727-.674l-7.448,7.453a.462.462,0,0,1-.646.007.472.472,0,0,1-.044-.625,4.628,4.628,0,0,0,.6-3.311A1.318,1.318,0,0,0,57.19,9.023a.283.283,0,0,0-.327.242l-.218,1.957A8.869,8.869,0,0,1,56,13.707c-.34.8-.577,1.356-.7,1.641a4.8,4.8,0,0,0-.246,3.3,2.771,2.771,0,0,1-.184,2.023l-.945,1.881h5.722a12.822,12.822,0,0,0,6.54-5.126L68.7,13.715a.56.56,0,0,0-.538-.872l-3.112,4.27a.492.492,0,0,1-.645.1.473.473,0,0,1-.1-.645L69.171,9.9a.547.547,0,0,0-.53-.857ZM60.669,6.487a.462.462,0,1,0,.462.462A.462.462,0,0,0,60.669,6.487Z" transform="translate(-52.71)"/>
</svg>
