<svg xmlns="http://www.w3.org/2000/svg" width="38.6" height="29.971" viewBox="0 0 38.6 29.971">
  <g id="Subscribe" transform="translate(0)">
    <path id="Path_7" data-name="Path 7" d="M33.586,11.572V26.659a1.064,1.064,0,0,1-1.107,1.1H3.322a1.064,1.064,0,0,1-1.107-1.1V7.892L17.162,20.771a1.125,1.125,0,0,0,1.476,0L30.448,10.56A6.461,6.461,0,0,1,28.7,9.18L17.9,18.471,2.953,5.5a.693.693,0,0,1,.461-.092H26.942A3.3,3.3,0,0,1,26.758,4.4c0-.46.092-.828.092-1.2H3.322A3.3,3.3,0,0,0,0,6.512V26.659a3.3,3.3,0,0,0,3.322,3.312H32.478A3.3,3.3,0,0,0,35.8,26.659V11.572a5.275,5.275,0,0,1-1.2.092,3.794,3.794,0,0,1-1.015-.092Z" transform="translate(0)"/>
    <path id="Path_8" data-name="Path 8" d="M38.6,3.2V0H36.3V3.2H33.4V5.4h2.9V8.8h2.3V5.4h3V3.2Z" transform="translate(-3)"/>
  </g>
</svg>
