<svg xmlns="http://www.w3.org/2000/svg" width="19.67" height="21.413" viewBox="0 0 19.67 21.413">
  <g id="Save" transform="translate(0.001)">
    <path id="Path_5" data-name="Path 5" d="M15.506,16.759V20.17L8.7,14.952a.439.439,0,0,0-.662,0L1.226,20.17V1.2h14.28V5.018h.567a1.138,1.138,0,0,1,.567.1V.6a.63.63,0,0,0-.567-.6H.567A.63.63,0,0,0,0,.6V20.17a1.2,1.2,0,0,0,.319.866,1.059,1.059,0,0,0,.815.339,1.308,1.308,0,0,0,.662-.2L8.32,16.257l6.524,4.917a1.066,1.066,0,0,0,.865.221,1.113,1.113,0,0,0,.742-.522,1.948,1.948,0,0,0,.187-.7V16.759c-.187,0-.378.1-.567.1S15.7,16.759,15.506,16.759Z"/>
    <path id="Path_6" data-name="Path 6" d="M19.4,11.227V8.2H17.276v3.027H14.4v1.968h2.876v3.33h2.119v-3.33h2.876V11.227Z" transform="translate(-2.602 -1.424)"/>
  </g>
</svg>
